<?xml version="1.0" encoding="utf-8"?>
<!-- Generator: Adobe Illustrator 13.0.0, SVG Export Plug-In . SVG Version: 6.00 Build 14948)  -->
<!DOCTYPE svg PUBLIC "-//W3C//DTD SVG 1.1//EN" "http://www.w3.org/Graphics/SVG/1.1/DTD/svg11.dtd" [
	<!ENTITY st0 "fill-rule:evenodd;clip-rule:evenodd;fill:#FF9900;">
	<!ENTITY st1 "fill-rule:evenodd;clip-rule:evenodd;fill:#FFB546;">
	<!ENTITY st2 "fill-rule:evenodd;clip-rule:evenodd;fill:#FFFFFF;">
]>
<svg version="1.1" id="レイヤー_1" xmlns="http://www.w3.org/2000/svg" xmlns:xlink="http://www.w3.org/1999/xlink" x="0px"
	 y="0px" width="150px" height="150px" viewBox="0 0 150 150" style="enable-background:new 0 0 150 150;" xml:space="preserve">
<circle style="&st2;" cx="75" cy="75" r="75"/>
<path style="&st1;" d="M32.6,75c0-23.4,18.9-42.3,42.3-42.3c23.4,0,42.3,18.9,42.3,42.3c0,23.4-18.9,42.3-42.3,42.3
	C51.6,117.3,32.6,98.4,32.6,75z"/>
<path style="&st0;" d="M127.6,69l2.4-5.1V42h-1v19h-1V42h-1v19h-1V42h-1v19h-1V42h-1v21.8l2.4,5.2l-1.1,48h4.2L127.6,69z M20,39.6
	V117h5.2l-1.4-38.1L28,67.5l-5.9-25.8L20,39.6z M45,75c0,16.8,13.6,30.5,30.5,30.5c16.8,0,30.5-13.6,30.5-30.5
	c0-16.8-13.6-30.5-30.5-30.5C58.6,44.6,45,58.2,45,75z"/>
</svg>
