<?xml version="1.0" encoding="utf-8"?>
<!-- Generator: Adobe Illustrator 13.0.0, SVG Export Plug-In . SVG Version: 6.00 Build 14948)  -->
<!DOCTYPE svg PUBLIC "-//W3C//DTD SVG 1.1//EN" "http://www.w3.org/Graphics/SVG/1.1/DTD/svg11.dtd">
<svg version="1.1" id="レイヤー_1" xmlns="http://www.w3.org/2000/svg" xmlns:xlink="http://www.w3.org/1999/xlink" x="0px"
	 y="0px" width="90px" height="56.25px" viewBox="0 0 90 56.25" enable-background="new 0 0 90 56.25" xml:space="preserve">
<path fill-rule="evenodd" clip-rule="evenodd" fill="#339900" d="M88,44.9V36H34V11H16.2L9.4,23.6L0,28.73V48h5.38
	c0.18-5.16,4.47-9.58,9.73-9.58c5.27,0,9.56,4.42,9.73,9.58h40.99c0.17-5.16,4.46-9.58,9.73-9.58s9.55,4.42,9.73,9.58H90v-2.5
	L88,44.9z M31,14v10H12.43l4.7-10H31z M7.39,48.62c0,4.22,3.46,7.63,7.72,7.63c4.27,0,7.73-3.41,7.73-7.63
	c0-4.21-3.46-7.62-7.73-7.62C10.85,41,7.39,44.41,7.39,48.62z M67.84,48.62c0,4.22,3.45,7.63,7.72,7.63s7.72-3.41,7.72-7.63
	c0-4.21-3.45-7.62-7.72-7.62S67.84,44.41,67.84,48.62z M64.04,18.06h3.14c0-1.29-0.31-2.91-1.48-2.91
	C64.54,15.15,64.1,16.85,64.04,18.06z M74.6,18.06h3.14c0-1.29-0.31-2.91-1.48-2.91C75.1,15.15,74.66,16.85,74.6,18.06z M35,0v35h53
	V0H35z M47.94,24.94h-2.88V9h7.8v2.82h-4.92v4.27h4.6v2.82h-4.6V24.94z M60.54,13.06v2.85c-0.24-0.07-0.5-0.09-0.86-0.09
	c-0.9,0-1.74,0.47-2.04,1.59c-0.1,0.3-0.14,0.74-0.14,1.58v5.95h-2.88V16.9c0-1.56-0.04-2.76-0.08-3.84h2.48l0.12,1.7h0.06
	c0.5-1.24,1.68-1.76,2.6-1.76C60.14,13,60.32,13.02,60.54,13.06z M69.15,21.68l0.41,2.65c-0.93,0.45-2.13,0.67-3.4,0.67
	c-3.27,0-4.98-2.28-4.98-5.88c0-3.46,1.61-5.85,4.69-5.85c2.49,0,4.19,1.4,4.19,5.52c0,0.42-0.02,0.85-0.09,1.15h-5.91
	c0.07,1.53,1.23,2.24,2.64,2.24C67.65,22.18,68.43,21.97,69.15,21.68z M79.71,21.68l0.41,2.65c-0.93,0.45-2.13,0.67-3.4,0.67
	c-3.27,0-4.98-2.28-4.98-5.88c0-3.46,1.61-5.85,4.69-5.85c2.49,0,4.19,1.4,4.19,5.52c0,0.42-0.02,0.85-0.09,1.15h-5.91
	c0.07,1.53,1.23,2.24,2.64,2.24C78.21,22.18,78.99,21.97,79.71,21.68z"/>
</svg>
