<?xml version="1.0" encoding="utf-8"?>
<!-- Generator: Adobe Illustrator 13.0.0, SVG Export Plug-In . SVG Version: 6.00 Build 14948)  -->
<!DOCTYPE svg PUBLIC "-//W3C//DTD SVG 1.1//EN" "http://www.w3.org/Graphics/SVG/1.1/DTD/svg11.dtd" [
	<!ENTITY st0 "fill-rule:evenodd;clip-rule:evenodd;fill:#FFFFFF;">
	<!ENTITY st1 "fill-rule:evenodd;clip-rule:evenodd;fill:#339900;">
]>
<svg version="1.1" id="レイヤー_1" xmlns="http://www.w3.org/2000/svg" xmlns:xlink="http://www.w3.org/1999/xlink" x="0px"
	 y="0px" width="150px" height="150px" viewBox="0 0 150 150" style="enable-background:new 0 0 150 150;" xml:space="preserve">
<circle style="&st0;" cx="75" cy="75" r="75"/>
<path style="&st1;" d="M131,99V87H59V53H35.3l-8.7,17L14,76.4V103h7.2c0.2-7,6-12.3,13-12.3s12.7,5.3,13,12.3h54.6
	c0.2-7,6-12.3,13-12.3c7,0,12.7,5.3,13,12.3h6.3v-4H131z M55,57v13H30.6l6.3-13H55z M23.9,103.2c0,5.7,4.6,10.3,10.3,10.3
	s10.3-4.6,10.3-10.3c0-5.7-4.6-10.3-10.3-10.3S23.9,97.5,23.9,103.2z M104.5,103.2c0,5.7,4.6,10.3,10.3,10.3
	c5.7,0,10.3-4.6,10.3-10.3c0-5.7-4.6-10.3-10.3-10.3C109.1,92.9,104.5,97.5,104.5,103.2z M61,38v47h71V38H61z"/>
</svg>
