<?xml version="1.0" encoding="utf-8"?>
<!-- Generator: Adobe Illustrator 13.0.0, SVG Export Plug-In . SVG Version: 6.00 Build 14948)  -->
<!DOCTYPE svg PUBLIC "-//W3C//DTD SVG 1.1//EN" "http://www.w3.org/Graphics/SVG/1.1/DTD/svg11.dtd" [
	<!ENTITY st0 "fill-rule:evenodd;clip-rule:evenodd;fill:#3EFF9E;">
	<!ENTITY st1 "fill-rule:evenodd;clip-rule:evenodd;fill:none;stroke:#FF6666;stroke-linecap:round;stroke-linejoin:round;">
	<!ENTITY st2 "fill-rule:evenodd;clip-rule:evenodd;fill:#99FFCC;">
	<!ENTITY st3 "fill-rule:evenodd;clip-rule:evenodd;fill:#FFFFFF;">
]>
<svg version="1.1" id="レイヤー_1" xmlns="http://www.w3.org/2000/svg" xmlns:xlink="http://www.w3.org/1999/xlink" x="0px"
	 y="0px" width="150px" height="150px" viewBox="0 0 150 150" style="enable-background:new 0 0 150 150;" xml:space="preserve">
<circle style="&st3;" cx="75" cy="75" r="75"/>
<line style="&st1;" x1="75" y1="50.5" x2="65" y2="39.5"/>
<path style="&st0;" d="M30,107.6v3.7c0,5.9,4.8,10.6,10.6,10.6h68.7c5.9,0,10.6-4.8,10.6-10.6v-3.7H30z M48,34v3h54v-3H48z"/>
<path style="&st2;" d="M30,36.6v68.7c0,5.9,5.3,10.6,11.1,10.6h68.2c5.9,0,10.6-4.8,10.6-10.6V36.6c0-5.9-4.8-10.6-10.6-10.6H40.6
	C34.8,26,30,30.8,30,36.6z M48,35h54v16H48V35z M45.7,74.7c-1.3-7.1,1.7-15.5,7.1-16.6c11.8-2.2,5.9,15.3,8.4,28.9
	c2.5,13.5,6.1,17.1,0.6,18.1S48.2,88.2,45.7,74.7z M104.4,74.7c-2.5,13.5-10.7,31.5-16.1,30.4c-5.4-1-1.8-4.6,0.6-18.1
	c2.5-13.5-3.5-31.1,8.4-28.9C102.7,59.2,105.7,67.6,104.4,74.7z"/>
</svg>
