<?xml version="1.0" encoding="utf-8"?>
<!-- Generator: Adobe Illustrator 13.0.0, SVG Export Plug-In . SVG Version: 6.00 Build 14948)  -->
<!DOCTYPE svg PUBLIC "-//W3C//DTD SVG 1.1//EN" "http://www.w3.org/Graphics/SVG/1.1/DTD/svg11.dtd">
<svg version="1.1" id="レイヤー_1" xmlns="http://www.w3.org/2000/svg" xmlns:xlink="http://www.w3.org/1999/xlink" x="0px"
	 y="0px" width="90px" height="78px" viewBox="0 0 90 78" enable-background="new 0 0 90 78" xml:space="preserve">
<path fill-rule="evenodd" clip-rule="evenodd" fill="#FFFFFF" d="M84.47,78V18.52L64.74,38.21L45,18.52L25.26,38.21L5.53,18.52V78
	H84.47z M78.16,10.24c0,3.27,2.65,5.91,5.92,5.91S90,13.51,90,10.24c0-3.26-2.65-5.91-5.92-5.91S78.16,6.98,78.16,10.24z
	 M11.84,10.24c0-3.26-2.65-5.91-5.92-5.91S0,6.98,0,10.24c0,3.27,2.65,5.91,5.92,5.91S11.84,13.51,11.84,10.24z M37.89,7.09
	c0,3.92,3.19,7.09,7.11,7.09s7.11-3.17,7.11-7.09S48.92,0,45,0S37.89,3.17,37.89,7.09z"/>
</svg>
