<?xml version="1.0" encoding="utf-8"?>
<!-- Generator: Adobe Illustrator 13.0.0, SVG Export Plug-In . SVG Version: 6.00 Build 14948)  -->
<!DOCTYPE svg PUBLIC "-//W3C//DTD SVG 1.1//EN" "http://www.w3.org/Graphics/SVG/1.1/DTD/svg11.dtd" [
	<!ENTITY st0 "fill:#FF4242;">
	<!ENTITY st1 "fill-rule:evenodd;clip-rule:evenodd;fill:#FF6666;">
	<!ENTITY st2 "fill-rule:evenodd;clip-rule:evenodd;fill:#FFFFFF;">
]>
<svg version="1.1" id="レイヤー_1" xmlns="http://www.w3.org/2000/svg" xmlns:xlink="http://www.w3.org/1999/xlink" x="0px"
	 y="0px" width="150px" height="150px" viewBox="0 0 150 150" style="enable-background:new 0 0 150 150;" xml:space="preserve">
<circle style="&st2;" cx="75" cy="75" r="75"/>
<polygon style="&st0;" points="72,91 72,109.7 56.4,130.8 59.8,133.7 71.6,117.8 82.8,140 87.5,137.8 77,117 77,115.5 90.3,130.3 
	93.7,127.1 77,108.5 77,91 "/>
<path style="&st1;" d="M93.8,30.5c-5.7,0-10.9-7.9-15.7-8c1-0.9,0.5-3.3-1.2-3c1.4-0.9,1.9-2.5,1.9-4.4c0-2.7-1.7-4.9-3.8-5.2
	c-2.1,0.2-3.8,2.5-3.8,5.2c0,1.8,0,3.5,1.4,4.4c-1.7-0.4-2.2,2.1-1.2,3c-4.8,0-10,8-15.7,8c-3.1,0-5.6,2.3-5.7,5.7
	c-0.1,3.4,1.8,7.2,3.3,9.1c6.8,8.9,12.7,25.1,4.5,33.5C47.9,89,61.7,91,61.7,91h26.1c0,0,13.9-2,3.9-12.2
	c-8.2-8.4-2.3-24.6,4.5-33.5c1.5-2,3.4-5.7,3.3-9.1C99.4,32.8,96.8,30.5,93.8,30.5z"/>
</svg>
