<?xml version="1.0" encoding="utf-8"?>
<!-- Generator: Adobe Illustrator 13.0.0, SVG Export Plug-In . SVG Version: 6.00 Build 14948)  -->
<!DOCTYPE svg PUBLIC "-//W3C//DTD SVG 1.1//EN" "http://www.w3.org/Graphics/SVG/1.1/DTD/svg11.dtd" [
	<!ENTITY st0 "fill-rule:evenodd;clip-rule:evenodd;fill:#B8D314;">
	<!ENTITY st1 "fill-rule:evenodd;clip-rule:evenodd;fill:#FFFFFF;">
	<!ENTITY st2 "fill-rule:evenodd;clip-rule:evenodd;fill:#01D1DE;">
]>
<svg version="1.1" id="レイヤー_1" xmlns="http://www.w3.org/2000/svg" xmlns:xlink="http://www.w3.org/1999/xlink" x="0px"
	 y="0px" width="150px" height="150px" viewBox="0 0 150 150" style="enable-background:new 0 0 150 150;" xml:space="preserve">
<circle style="&st1;" cx="75" cy="75" r="75"/>
<path style="&st0;" d="M117.6,33.1c0,7.3-5.9,13.1-13.1,13.1c-7.2,0-13.1-5.9-13.1-13.1c0-7.3,5.9-13.1,13.1-13.1
	C111.8,20,117.6,25.9,117.6,33.1z M119,56.8v67c0,3.4-2.4,6.2-5.8,6.2c-3.4,0-6.2-2.8-6.2-6.2V100h-5v23.9c0,3.4-2.5,6.1-5.9,6.1
	c-3.4,0-6.1-2.8-6.1-6.2V76.4L79.8,86.6c-2.4,2.4-6.5,2.4-8.8,0c-2.4-2.4-2.4-6.3,0-8.7l18.4-19.2c0,0,6.9-9.7,11.2-9.7h10.7
	C115.5,49,119,52.5,119,56.8z"/>
<path style="&st2;" d="M33.1,33.1c0,7.3,5.9,13.1,13.1,13.1c7.2,0,13.1-5.9,13.1-13.1c0-7.3-5.9-13.1-13.1-13.1
	C38.9,20,33.1,25.9,33.1,33.1z M31,56.8v67c0,3.4,3.4,6.2,6.8,6.2c3.4,0,6.2-2.8,6.2-6.2V100h5v23.9c0,3.4,2.8,6.1,6.3,6.1
	c3.4,0,5.7-2.8,5.7-6.2V76.4l10.2,10.2c2.4,2.4,6.1,2.4,8.5,0c2.4-2.4,2.4-6.3,0-8.7L61.3,58.7c0,0-6.9-9.7-11.2-9.7H38.7
	C34.5,49,31,52.5,31,56.8z"/>
</svg>
