<?xml version="1.0" encoding="utf-8"?>
<!-- Generator: Adobe Illustrator 13.0.0, SVG Export Plug-In . SVG Version: 6.00 Build 14948)  -->
<!DOCTYPE svg PUBLIC "-//W3C//DTD SVG 1.1//EN" "http://www.w3.org/Graphics/SVG/1.1/DTD/svg11.dtd" [
	<!ENTITY st0 "fill-rule:evenodd;clip-rule:evenodd;">
	<!ENTITY st1 "fill-rule:evenodd;clip-rule:evenodd;fill:#FFFFFF;">
	<!ENTITY st2 "fill-rule:evenodd;clip-rule:evenodd;fill:#333333;">
]>
<svg version="1.1" id="レイヤー_1" xmlns="http://www.w3.org/2000/svg" xmlns:xlink="http://www.w3.org/1999/xlink" x="0px"
	 y="0px" width="150px" height="150px" viewBox="0 0 150 150" style="enable-background:new 0 0 150 150;" xml:space="preserve">
<circle style="&st1;" cx="75" cy="75" r="75"/>
<path style="&st2;" d="M75,66.7L75,66.7l0,12.1h0c43.1,42,60-13.7,60-13.7s-4.9,7.3-12.5,7.1c-9.9-0.2-17.9-14.7-31.3-14.7
	C82.8,57.4,77.7,63.3,75,66.7z"/>
<path style="&st0;" d="M75,66.7L75,66.7l0,12.1h0C31.9,120.7,15,65,15,65s4.9,7.3,12.5,7.1c9.9-0.2,17.9-14.7,31.3-14.7
	C67.3,57.4,72.3,63.3,75,66.7z"/>
</svg>
