<?xml version="1.0" encoding="utf-8"?>
<!-- Generator: Adobe Illustrator 13.0.0, SVG Export Plug-In . SVG Version: 6.00 Build 14948)  -->
<!DOCTYPE svg PUBLIC "-//W3C//DTD SVG 1.1//EN" "http://www.w3.org/Graphics/SVG/1.1/DTD/svg11.dtd" [
	<!ENTITY st0 "fill-rule:evenodd;clip-rule:evenodd;fill:#FF0000;">
	<!ENTITY st1 "fill-rule:evenodd;clip-rule:evenodd;fill:#FF6600;">
	<!ENTITY st2 "fill-rule:evenodd;clip-rule:evenodd;fill:#FF9900;">
	<!ENTITY st3 "fill-rule:evenodd;clip-rule:evenodd;fill:#FFFFFF;">
]>
<svg version="1.1" id="レイヤー_1" xmlns="http://www.w3.org/2000/svg" xmlns:xlink="http://www.w3.org/1999/xlink" x="0px"
	 y="0px" width="150px" height="150px" viewBox="0 0 150 150" style="enable-background:new 0 0 150 150;" xml:space="preserve">
<circle style="&st3;" cx="75" cy="75" r="75"/>
<polygon style="&st0;" points="13.5,96 22,96 22,67.9 22,69.6 40.4,96 52,96 52,54 43,54 43,80 42.5,78.7 24.2,54 13,54 13,96 "/>
<polygon style="&st1;" points="53,54.5 53,96 88,96 88,87 62,87 62,79 87,79 87,70 62,70 62,63 88,63 88,54 53,54 "/>
<polygon style="&st2;" points="89,54.5 97.9,96 109.1,96 113.5,75.5 117.9,96 129,96 137.9,54 128.5,54 124,81 124,78.1 118.9,54 
	110,54 105,78.1 105,81 100.6,54 89,54 "/>
</svg>
