<?xml version="1.0" encoding="utf-8"?>
<!-- Generator: Adobe Illustrator 13.0.0, SVG Export Plug-In . SVG Version: 6.00 Build 14948)  -->
<!DOCTYPE svg PUBLIC "-//W3C//DTD SVG 1.1//EN" "http://www.w3.org/Graphics/SVG/1.1/DTD/svg11.dtd" [
	<!ENTITY st0 "fill-rule:evenodd;clip-rule:evenodd;fill:#FFFFFF;">
	<!ENTITY st1 "fill-rule:evenodd;clip-rule:evenodd;fill:#00CC99;">
]>
<svg version="1.1" id="レイヤー_1" xmlns="http://www.w3.org/2000/svg" xmlns:xlink="http://www.w3.org/1999/xlink" x="0px"
	 y="0px" width="150px" height="150px" viewBox="0 0 150 150" style="enable-background:new 0 0 150 150;" xml:space="preserve">
<circle style="&st0;" cx="75" cy="75" r="75"/>
<path style="&st1;" d="M62.7,26.5L66,38.3c-12.1,6.1-64.7,35.3-18,65.1V117h-7v16h81v-16H74v-14h34V88H57.4
	c-17.6-15.1,6.1-33.5,12.4-38l5.5,18l21.1-6.6L83.8,19.9L62.7,26.5z M72.2,71l2,6.5l29.3-9.1l-2-6.5L72.2,71z M61.5,19.3l1.7,5.5
	l19.2-6l-1.7-5.5L61.5,19.3z"/>
</svg>
