<?xml version="1.0" encoding="utf-8"?>
<!-- Generator: Adobe Illustrator 13.0.0, SVG Export Plug-In . SVG Version: 6.00 Build 14948)  -->
<!DOCTYPE svg PUBLIC "-//W3C//DTD SVG 1.1//EN" "http://www.w3.org/Graphics/SVG/1.1/DTD/svg11.dtd" [
	<!ENTITY st0 "fill-rule:evenodd;clip-rule:evenodd;fill:#FFCC00;">
	<!ENTITY st1 "fill-rule:evenodd;clip-rule:evenodd;fill:#FFFFFF;">
	<!ENTITY st2 "fill-rule:evenodd;clip-rule:evenodd;fill:#D2A800;">
]>
<svg version="1.1" id="レイヤー_1" xmlns="http://www.w3.org/2000/svg" xmlns:xlink="http://www.w3.org/1999/xlink" x="0px"
	 y="0px" width="150px" height="150px" viewBox="0 0 150 150" style="enable-background:new 0 0 150 150;" xml:space="preserve">
<circle style="&st1;" cx="75" cy="75" r="75"/>
<path style="&st2;" d="M75,122h50V46.5l-25,25l-25-25V122z M117,36c0,4.1,3.4,7.5,7.5,7.5s7.5-3.4,7.5-7.5s-3.4-7.5-7.5-7.5
	S117,31.9,117,36z"/>
<path style="&st0;" d="M75,122V46.5l-25,25l-25-25V122H75z M33,36c0-4.1-3.4-7.5-7.5-7.5S18,31.9,18,36s3.4,7.5,7.5,7.5
	S33,40.1,33,36z M66,32c0,5,4,9,9,9s9-4,9-9s-4-9-9-9S66,27,66,32z"/>
</svg>
