<?xml version="1.0" encoding="utf-8"?>
<!-- Generator: Adobe Illustrator 13.0.0, SVG Export Plug-In . SVG Version: 6.00 Build 14948)  -->
<!DOCTYPE svg PUBLIC "-//W3C//DTD SVG 1.1//EN" "http://www.w3.org/Graphics/SVG/1.1/DTD/svg11.dtd">
<svg version="1.1" id="レイヤー_1" xmlns="http://www.w3.org/2000/svg" xmlns:xlink="http://www.w3.org/1999/xlink" x="0px"
	 y="0px" width="100px" height="100px" viewBox="0 0 100 100" enable-background="new 0 0 100 100" xml:space="preserve">
<path fill-rule="evenodd" clip-rule="evenodd" fill="#CCCCCC" d="M0,50c0,27.61,22.39,50,50,50s50-22.39,50-50S77.61,0,50,0
	S0,22.39,0,50z M59.5,32c0-2.49,2.01-4.5,4.5-4.5s4.5,2.01,4.5,4.5s-2.01,4.5-4.5,4.5S59.5,34.49,59.5,32z M59.5,46
	c0-2.49,2.01-4.5,4.5-4.5s4.5,2.01,4.5,4.5s-2.01,4.5-4.5,4.5S59.5,48.49,59.5,46z M59.5,60c0-2.49,2.01-4.5,4.5-4.5
	s4.5,2.01,4.5,4.5s-2.01,4.5-4.5,4.5S59.5,62.49,59.5,60z M73.5,46c0-2.49,2.01-4.5,4.5-4.5s4.5,2.01,4.5,4.5s-2.01,4.5-4.5,4.5
	S73.5,48.49,73.5,46z M73.5,60c0-2.49,2.01-4.5,4.5-4.5s4.5,2.01,4.5,4.5s-2.01,4.5-4.5,4.5S73.5,62.49,73.5,60z M73.5,74
	c0-2.49,2.01-4.5,4.5-4.5s4.5,2.01,4.5,4.5s-2.01,4.5-4.5,4.5S73.5,76.49,73.5,74z M31.5,32c0-2.49,2.01-4.5,4.5-4.5
	s4.5,2.01,4.5,4.5s-2.01,4.5-4.5,4.5S31.5,34.49,31.5,32z M31.5,46c0-2.49,2.01-4.5,4.5-4.5s4.5,2.01,4.5,4.5s-2.01,4.5-4.5,4.5
	S31.5,48.49,31.5,46z M31.5,60c0-2.49,2.01-4.5,4.5-4.5s4.5,2.01,4.5,4.5s-2.01,4.5-4.5,4.5S31.5,62.49,31.5,60z M17.5,46
	c0-2.49,2.01-4.5,4.5-4.5s4.5,2.01,4.5,4.5s-2.01,4.5-4.5,4.5S17.5,48.49,17.5,46z M17.5,60c0-2.49,2.01-4.5,4.5-4.5
	s4.5,2.01,4.5,4.5s-2.01,4.5-4.5,4.5S17.5,62.49,17.5,60z M17.5,74c0-2.49,2.01-4.5,4.5-4.5s4.5,2.01,4.5,4.5s-2.01,4.5-4.5,4.5
	S17.5,76.49,17.5,74z M45.5,18c0-2.49,2.01-4.5,4.5-4.5s4.5,2.01,4.5,4.5s-2.01,4.5-4.5,4.5S45.5,20.49,45.5,18z M45.5,32
	c0-2.49,2.01-4.5,4.5-4.5s4.5,2.01,4.5,4.5s-2.01,4.5-4.5,4.5S45.5,34.49,45.5,32z M45.5,46c0-2.49,2.01-4.5,4.5-4.5
	s4.5,2.01,4.5,4.5s-2.01,4.5-4.5,4.5S45.5,48.49,45.5,46z"/>
</svg>
